# xmcd
#
# Track frame offsets:
#	187
#	30330
#	58765
#	78410
#	96637
#	122757
#	131645
#	157372
#	174780
#	194927
#	216032
#	235320
#	254802
#	278897
#
# Disc length: 4053 seconds
#
# Revision: 0
# Processed by: cddbd v1.5.2PL0 Copyright (c) Steve Scherf et al.
# Submitted via: dBpowerAMP V4.0
#
DISCID=d80fd30e
DTITLE=Various Artist - LIVE! It's the blues night
DYEAR=1988
DGENRE=Blues
TTITLE0=Shinji Shiotsugu - Okie Dokie Stomp
TTITLE1=Fusanosuke Kondo - It's My Own Fault
TTITLE2=Fusanosuke Kondo - One Way Out
TTITLE3=Fusanosuke Kondo - Don't Let Me Be Lonely Tonight
TTITLE4=Haruko Kuwana-Bella Morisaki-Yuiko Tsubokura - Knock on Wood
TTITLE5=Yuiko Tsubokura - Mercedes
TTITLE6=Emi Kobayashi - Misty Blue
TTITLE7=Strawberry Blues Band - Good Time Roll
TTITLE8=Yuichiro Oda - Kansas City
TTITLE9=Haruko Kuwana - Hurt
TTITLE10=Bella Morisaki - Stand By Me
TTITLE11=Ryuichiro Senoh - Oh! Baby
TTITLE12=Yumi Sakurai - Trust Me
TTITLE13=Hiroshi Kamayatsu - Boom Boom
EXTD=LIVE! It's the blues night
EXTT0=
EXTT1=
EXTT2=
EXTT3=
EXTT4=
EXTT5=
EXTT6=
EXTT7=
EXTT8=
EXTT9=
EXTT10=
EXTT11=
EXTT12=
EXTT13=
PLAYORDER=
